<svg width="155" height="38" viewBox="0 0 155 38" fill="none" xmlns="http://www.w3.org/2000/svg">
<path d="M3.952 6.424C3.12 6.424 2.416 6.136 1.84 5.56C1.264 4.984 0.976 4.28 0.976 3.448C0.976 2.616 1.264 1.912 1.84 1.336C2.416 0.759998 3.12 0.471998 3.952 0.471998C4.752 0.471998 5.424 0.759998 5.968 1.336C6.544 1.912 6.832 2.616 6.832 3.448C6.832 4.28 6.544 4.984 5.968 5.56C5.424 6.136 4.752 6.424 3.952 6.424ZM6.064 10.696V37H1.696V10.696H6.064ZM26.3245 10.216C29.5245 10.216 32.1165 11.192 34.1005 13.144C36.0845 15.064 37.0765 17.848 37.0765 21.496V37H32.7565V22.12C32.7565 19.496 32.1005 17.496 30.7885 16.12C29.4765 14.712 27.6845 14.008 25.4125 14.008C23.1085 14.008 21.2685 14.728 19.8925 16.168C18.5485 17.608 17.8765 19.704 17.8765 22.456V37H13.5085V10.696H17.8765V14.44C18.7405 13.096 19.9085 12.056 21.3805 11.32C22.8845 10.584 24.5325 10.216 26.3245 10.216ZM48.5796 15.592C49.4756 14.024 50.7876 12.744 52.5156 11.752C54.2436 10.76 56.2116 10.264 58.4196 10.264C60.7876 10.264 62.9156 10.824 64.8036 11.944C66.6916 13.064 68.1796 14.648 69.2676 16.696C70.3556 18.712 70.8996 21.064 70.8996 23.752C70.8996 26.408 70.3556 28.776 69.2676 30.856C68.1796 32.936 66.6756 34.552 64.7556 35.704C62.8676 36.856 60.7556 37.432 58.4196 37.432C56.1476 37.432 54.1476 36.936 52.4196 35.944C50.7236 34.952 49.4436 33.688 48.5796 32.152V37H44.2116V1.48H48.5796V15.592ZM66.4356 23.752C66.4356 21.768 66.0356 20.04 65.2356 18.568C64.4356 17.096 63.3476 15.976 61.9716 15.208C60.6276 14.44 59.1396 14.056 57.5076 14.056C55.9076 14.056 54.4196 14.456 53.0436 15.256C51.6996 16.024 50.6116 17.16 49.7796 18.664C48.9796 20.136 48.5796 21.848 48.5796 23.8C48.5796 25.784 48.9796 27.528 49.7796 29.032C50.6116 30.504 51.6996 31.64 53.0436 32.44C54.4196 33.208 55.9076 33.592 57.5076 33.592C59.1396 33.592 60.6276 33.208 61.9716 32.44C63.3476 31.64 64.4356 30.504 65.2356 29.032C66.0356 27.528 66.4356 25.768 66.4356 23.752ZM88.1211 37.432C85.6571 37.432 83.4171 36.872 81.4011 35.752C79.4171 34.632 77.8491 33.048 76.6971 31C75.5771 28.92 75.0171 26.52 75.0171 23.8C75.0171 21.112 75.5931 18.744 76.7451 16.696C77.9291 14.616 79.5291 13.032 81.5451 11.944C83.5611 10.824 85.8171 10.264 88.3131 10.264C90.8091 10.264 93.0651 10.824 95.0811 11.944C97.0971 13.032 98.6811 14.6 99.8331 16.648C101.017 18.696 101.609 21.08 101.609 23.8C101.609 26.52 101.001 28.92 99.7851 31C98.6011 33.048 96.9851 34.632 94.9371 35.752C92.8891 36.872 90.6171 37.432 88.1211 37.432ZM88.1211 33.592C89.6891 33.592 91.1611 33.224 92.5371 32.488C93.9131 31.752 95.0171 30.648 95.8491 29.176C96.7131 27.704 97.1451 25.912 97.1451 23.8C97.1451 21.688 96.7291 19.896 95.8971 18.424C95.0651 16.952 93.9771 15.864 92.6331 15.16C91.2891 14.424 89.8331 14.056 88.2651 14.056C86.6651 14.056 85.1931 14.424 83.8491 15.16C82.5371 15.864 81.4811 16.952 80.6811 18.424C79.8811 19.896 79.4811 21.688 79.4811 23.8C79.4811 25.944 79.8651 27.752 80.6331 29.224C81.4331 30.696 82.4891 31.8 83.8011 32.536C85.1131 33.24 86.5531 33.592 88.1211 33.592ZM121.08 37L114.84 27.208L108.84 37H104.28L112.776 23.944L104.28 10.696H109.224L115.464 20.44L121.416 10.696H125.976L117.528 23.704L126.024 37H121.08ZM132.577 6.424C131.745 6.424 131.041 6.136 130.465 5.56C129.889 4.984 129.601 4.28 129.601 3.448C129.601 2.616 129.889 1.912 130.465 1.336C131.041 0.759998 131.745 0.471998 132.577 0.471998C133.377 0.471998 134.049 0.759998 134.593 1.336C135.169 1.912 135.457 2.616 135.457 3.448C135.457 4.28 135.169 4.984 134.593 5.56C134.049 6.136 133.377 6.424 132.577 6.424ZM134.689 10.696V37H130.321V10.696H134.689ZM147.462 14.296V29.8C147.462 31.08 147.734 31.992 148.278 32.536C148.822 33.048 149.766 33.304 151.109 33.304H154.326V37H150.39C147.958 37 146.134 36.44 144.918 35.32C143.702 34.2 143.094 32.36 143.094 29.8V14.296H139.686V10.696H143.094V4.072H147.462V10.696H154.326V14.296H147.462Z" fill="black"/>
</svg>
